<svg width="36" height="32" viewBox="0 0 36 32" fill="none" xmlns="http://www.w3.org/2000/svg">
<path fill-rule="evenodd" clip-rule="evenodd" d="M18 2.99878C26.2845 2.99878 33 8.80978 33 15.9784C33 23.1471 26.2845 28.9581 18 28.9581C9.7155 28.9581 3 23.1471 3 15.9784C3 8.80978 9.7155 2.99878 18 2.99878ZM18 5.59471C14.8174 5.59471 11.7652 6.68871 9.51472 8.63604C7.26428 10.5834 6 13.2245 6 15.9784C6 18.7324 7.26428 21.3735 9.51472 23.3209C11.7652 25.2682 14.8174 26.3622 18 26.3622C21.1826 26.3622 24.2348 25.2682 26.4853 23.3209C28.7357 21.3735 30 18.7324 30 15.9784C30 13.2245 28.7357 10.5834 26.4853 8.63604C24.2348 6.68871 21.1826 5.59471 18 5.59471V5.59471ZM15.756 9.66514L24.756 14.857C24.9681 14.9639 25.1467 15.1142 25.276 15.2948C25.4053 15.4753 25.4815 15.6805 25.4978 15.8925C25.5141 16.1044 25.47 16.3166 25.3694 16.5104C25.2689 16.7041 25.1149 16.8736 24.921 17.0038L15.756 22.2918C15.528 22.4069 15.269 22.4679 15.0051 22.4687C14.7412 22.4694 14.4817 22.4099 14.2528 22.2962C14.024 22.1824 13.8338 22.0184 13.7017 21.8207C13.5695 21.6231 13.4999 21.3987 13.5 21.1703V10.7866C13.4999 10.5582 13.5695 10.3338 13.7017 10.1362C13.8338 9.93848 14.024 9.77448 14.2528 9.66072C14.4817 9.54696 14.7412 9.48746 15.0051 9.48824C15.269 9.48901 15.528 9.55003 15.756 9.66514Z" fill="white"/>
</svg>
